<?xml version="1.0" encoding="UTF-8" standalone="no"?>
<!DOCTYPE svg PUBLIC "-//W3C//DTD SVG 1.1//EN" "http://www.w3.org/Graphics/SVG/1.1/DTD/svg11.dtd">
<svg width="100%" height="100%" viewBox="0 0 23 21" version="1.1" xmlns="http://www.w3.org/2000/svg" xmlns:xlink="http://www.w3.org/1999/xlink" xml:space="preserve" xmlns:serif="http://www.serif.com/" style="fill-rule:evenodd;clip-rule:evenodd;stroke-linecap:round;stroke-linejoin:round;stroke-miterlimit:1.5;">
    <g transform="matrix(1,0,0,1,-4.725,-5.725)">
        <g transform="matrix(1,0,0,1,0,4)">
            <g opacity="0.75">
                <g transform="matrix(1.047619,0,0,1,-4.428571,-11)">
                    <path d="M26.85,21.5L30,23L19.5,28L9,23L12.15,21.5L19.5,25L26.85,21.5Z" style="fill:white;stroke:white;stroke-width:0.54px;"/>
                </g>
            </g>
        </g>
        <g transform="matrix(1,0,0,1,0,9)">
            <g opacity="0.5">
                <g transform="matrix(1.047619,0,0,1,-4.428571,-11)">
                    <path d="M26.85,21.5L30,23L19.5,28L9,23L12.15,21.5L19.5,25L26.85,21.5Z" style="fill:white;stroke:white;stroke-width:0.54px;"/>
                </g>
            </g>
        </g>
        <g transform="matrix(1.047619,0,0,1,-4.428571,-12)">
            <path d="M19.5,18L30,23L19.5,28L9,23L19.5,18Z" style="fill:white;stroke:white;stroke-width:0.54px;"/>
        </g>
    </g>
</svg>
